<mxfile host="app.diagrams.net" agent="Mozilla/5.0 (Macintosh; Intel Mac OS X 10_15_7) AppleWebKit/537.36 (KHTML, like Gecko) Chrome/129.0.0.0 Safari/537.36" version="24.7.17">
  <diagram id="C5RBs43oDa-KdzZeNtuy" name="Page-1">
    <mxGraphModel grid="1" page="1" gridSize="10" guides="1" tooltips="1" connect="1" arrows="1" fold="1" pageScale="1" pageWidth="827" pageHeight="1169" math="0" shadow="0">
      <root>
        <mxCell id="WIyWlLk6GJQsqaUBKTNV-0" />
        <mxCell id="WIyWlLk6GJQsqaUBKTNV-1" parent="WIyWlLk6GJQsqaUBKTNV-0" />
        <mxCell id="rn9Z2eDnz00FKQH-SZsY-0" value="" style="rounded=0;whiteSpace=wrap;html=1;" vertex="1" parent="WIyWlLk6GJQsqaUBKTNV-1">
          <mxGeometry x="40" y="220" width="730" height="340" as="geometry" />
        </mxCell>
        <mxCell id="rn9Z2eDnz00FKQH-SZsY-1" value="Menghasilkan Laporan Keuangan" style="ellipse;whiteSpace=wrap;html=1;" vertex="1" parent="WIyWlLk6GJQsqaUBKTNV-1">
          <mxGeometry x="490" y="490" width="210" height="40" as="geometry" />
        </mxCell>
        <mxCell id="rn9Z2eDnz00FKQH-SZsY-2" value="Mencatat Pengeluaran" style="ellipse;whiteSpace=wrap;html=1;" vertex="1" parent="WIyWlLk6GJQsqaUBKTNV-1">
          <mxGeometry x="600" y="410" width="160" height="30" as="geometry" />
        </mxCell>
        <mxCell id="rn9Z2eDnz00FKQH-SZsY-3" value="Mengupdate Persediaan" style="ellipse;whiteSpace=wrap;html=1;" vertex="1" parent="WIyWlLk6GJQsqaUBKTNV-1">
          <mxGeometry x="600" y="290" width="150" height="40" as="geometry" />
        </mxCell>
        <mxCell id="rn9Z2eDnz00FKQH-SZsY-4" value="Mencatat Penjualan" style="ellipse;whiteSpace=wrap;html=1;" vertex="1" parent="WIyWlLk6GJQsqaUBKTNV-1">
          <mxGeometry x="400" y="360" width="156" height="30" as="geometry" />
        </mxCell>
        <mxCell id="rn9Z2eDnz00FKQH-SZsY-21" style="edgeStyle=none;curved=1;rounded=0;orthogonalLoop=1;jettySize=auto;html=1;fontSize=12;startSize=8;endSize=8;exitX=0.5;exitY=1;exitDx=0;exitDy=0;" edge="1" parent="WIyWlLk6GJQsqaUBKTNV-1" source="rn9Z2eDnz00FKQH-SZsY-4" target="rn9Z2eDnz00FKQH-SZsY-1">
          <mxGeometry relative="1" as="geometry" />
        </mxCell>
        <mxCell id="rn9Z2eDnz00FKQH-SZsY-5" value="Mencetak Struk" style="ellipse;whiteSpace=wrap;html=1;" vertex="1" parent="WIyWlLk6GJQsqaUBKTNV-1">
          <mxGeometry x="430" y="260" width="126" height="30" as="geometry" />
        </mxCell>
        <mxCell id="rn9Z2eDnz00FKQH-SZsY-17" style="edgeStyle=none;curved=1;rounded=0;orthogonalLoop=1;jettySize=auto;html=1;fontSize=12;startSize=8;endSize=8;" edge="1" parent="WIyWlLk6GJQsqaUBKTNV-1" source="rn9Z2eDnz00FKQH-SZsY-6">
          <mxGeometry relative="1" as="geometry">
            <mxPoint x="330" y="270" as="targetPoint" />
          </mxGeometry>
        </mxCell>
        <mxCell id="rn9Z2eDnz00FKQH-SZsY-6" value="Membayar Tagihan" style="ellipse;whiteSpace=wrap;html=1;" vertex="1" parent="WIyWlLk6GJQsqaUBKTNV-1">
          <mxGeometry x="290" y="270" width="110" height="30" as="geometry" />
        </mxCell>
        <mxCell id="rn9Z2eDnz00FKQH-SZsY-7" value="Pesan Makanan" style="ellipse;whiteSpace=wrap;html=1;" vertex="1" parent="WIyWlLk6GJQsqaUBKTNV-1">
          <mxGeometry x="170" y="280" width="110" height="30" as="geometry" />
        </mxCell>
        <mxCell id="rn9Z2eDnz00FKQH-SZsY-8" value="Melihat menu" style="ellipse;whiteSpace=wrap;html=1;" vertex="1" parent="WIyWlLk6GJQsqaUBKTNV-1">
          <mxGeometry x="50" y="270" width="110" height="30" as="geometry" />
        </mxCell>
        <mxCell id="rn9Z2eDnz00FKQH-SZsY-13" value="" style="edgeStyle=none;curved=1;rounded=0;orthogonalLoop=1;jettySize=auto;html=1;fontSize=12;startSize=8;endSize=8;entryX=0.5;entryY=0;entryDx=0;entryDy=0;" edge="1" parent="WIyWlLk6GJQsqaUBKTNV-1" source="rn9Z2eDnz00FKQH-SZsY-9" target="rn9Z2eDnz00FKQH-SZsY-8">
          <mxGeometry relative="1" as="geometry" />
        </mxCell>
        <mxCell id="rn9Z2eDnz00FKQH-SZsY-14" value="" style="edgeStyle=none;curved=1;rounded=0;orthogonalLoop=1;jettySize=auto;html=1;fontSize=12;startSize=8;endSize=8;" edge="1" parent="WIyWlLk6GJQsqaUBKTNV-1" target="rn9Z2eDnz00FKQH-SZsY-7">
          <mxGeometry relative="1" as="geometry">
            <mxPoint x="225" y="200" as="sourcePoint" />
          </mxGeometry>
        </mxCell>
        <mxCell id="rn9Z2eDnz00FKQH-SZsY-15" value="" style="edgeStyle=none;curved=1;rounded=0;orthogonalLoop=1;jettySize=auto;html=1;fontSize=12;startSize=8;endSize=8;" edge="1" parent="WIyWlLk6GJQsqaUBKTNV-1" target="rn9Z2eDnz00FKQH-SZsY-7">
          <mxGeometry relative="1" as="geometry">
            <mxPoint x="225" y="190" as="sourcePoint" />
          </mxGeometry>
        </mxCell>
        <mxCell id="rn9Z2eDnz00FKQH-SZsY-9" value="Pelanggan" style="shape=umlActor;verticalLabelPosition=bottom;verticalAlign=top;html=1;outlineConnect=0;" vertex="1" parent="WIyWlLk6GJQsqaUBKTNV-1">
          <mxGeometry x="210" y="110" width="30" height="60" as="geometry" />
        </mxCell>
        <mxCell id="rn9Z2eDnz00FKQH-SZsY-16" value="" style="edgeStyle=none;curved=1;rounded=0;orthogonalLoop=1;jettySize=auto;html=1;fontSize=12;startSize=8;endSize=8;entryX=0.5;entryY=0;entryDx=0;entryDy=0;" edge="1" parent="WIyWlLk6GJQsqaUBKTNV-1" source="rn9Z2eDnz00FKQH-SZsY-9" target="rn9Z2eDnz00FKQH-SZsY-6">
          <mxGeometry relative="1" as="geometry">
            <mxPoint x="235" y="180" as="sourcePoint" />
            <mxPoint x="235" y="290" as="targetPoint" />
          </mxGeometry>
        </mxCell>
        <mxCell id="rn9Z2eDnz00FKQH-SZsY-18" value="Sistem Akuntansi" style="text;html=1;align=center;verticalAlign=middle;whiteSpace=wrap;rounded=0;fontSize=16;" vertex="1" parent="WIyWlLk6GJQsqaUBKTNV-1">
          <mxGeometry x="341" y="220" width="146" height="30" as="geometry" />
        </mxCell>
        <mxCell id="rn9Z2eDnz00FKQH-SZsY-19" value="" style="endArrow=classic;html=1;rounded=0;fontSize=12;startSize=8;endSize=8;curved=1;exitX=0.5;exitY=1;exitDx=0;exitDy=0;entryX=0;entryY=0;entryDx=0;entryDy=0;" edge="1" parent="WIyWlLk6GJQsqaUBKTNV-1" source="rn9Z2eDnz00FKQH-SZsY-7" target="rn9Z2eDnz00FKQH-SZsY-4">
          <mxGeometry relative="1" as="geometry">
            <mxPoint x="320" y="280" as="sourcePoint" />
            <mxPoint x="420" y="280" as="targetPoint" />
          </mxGeometry>
        </mxCell>
        <mxCell id="rn9Z2eDnz00FKQH-SZsY-20" value="&amp;lt;&amp;lt;includes&amp;gt;&amp;gt;" style="edgeLabel;resizable=0;html=1;fontSize=12;;align=center;verticalAlign=middle;" connectable="0" vertex="1" parent="rn9Z2eDnz00FKQH-SZsY-19">
          <mxGeometry relative="1" as="geometry">
            <mxPoint x="26" y="-7" as="offset" />
          </mxGeometry>
        </mxCell>
        <mxCell id="rn9Z2eDnz00FKQH-SZsY-22" value="" style="endArrow=classic;html=1;rounded=0;fontSize=12;startSize=8;endSize=8;curved=1;exitX=0.5;exitY=1;exitDx=0;exitDy=0;entryX=0.671;entryY=0.025;entryDx=0;entryDy=0;entryPerimeter=0;" edge="1" parent="WIyWlLk6GJQsqaUBKTNV-1" source="rn9Z2eDnz00FKQH-SZsY-2" target="rn9Z2eDnz00FKQH-SZsY-1">
          <mxGeometry width="50" height="50" relative="1" as="geometry">
            <mxPoint x="540" y="300" as="sourcePoint" />
            <mxPoint x="590" y="250" as="targetPoint" />
          </mxGeometry>
        </mxCell>
        <mxCell id="rn9Z2eDnz00FKQH-SZsY-25" value="&amp;lt;&amp;lt;extends&amp;gt;&amp;gt;" style="edgeLabel;resizable=0;html=1;fontSize=12;;align=center;verticalAlign=middle;" connectable="0" vertex="1" parent="WIyWlLk6GJQsqaUBKTNV-1">
          <mxGeometry x="580.00497268658" y="450.0045087900127" as="geometry" />
        </mxCell>
        <mxCell id="rn9Z2eDnz00FKQH-SZsY-26" value="&amp;lt;&amp;lt;extends&amp;gt;&amp;gt;" style="edgeLabel;resizable=0;html=1;fontSize=12;;align=center;verticalAlign=middle;" connectable="0" vertex="1" parent="WIyWlLk6GJQsqaUBKTNV-1">
          <mxGeometry x="690.00497268658" y="480.0045087900127" as="geometry" />
        </mxCell>
        <mxCell id="rn9Z2eDnz00FKQH-SZsY-28" value="" style="edgeStyle=none;curved=1;rounded=0;orthogonalLoop=1;jettySize=auto;html=1;fontSize=12;startSize=8;endSize=8;" edge="1" parent="WIyWlLk6GJQsqaUBKTNV-1" source="rn9Z2eDnz00FKQH-SZsY-27" target="rn9Z2eDnz00FKQH-SZsY-3">
          <mxGeometry relative="1" as="geometry" />
        </mxCell>
        <mxCell id="rn9Z2eDnz00FKQH-SZsY-27" value="Kasir" style="shape=umlActor;verticalLabelPosition=bottom;verticalAlign=top;html=1;outlineConnect=0;" vertex="1" parent="WIyWlLk6GJQsqaUBKTNV-1">
          <mxGeometry x="750" y="80" width="30" height="60" as="geometry" />
        </mxCell>
        <mxCell id="rn9Z2eDnz00FKQH-SZsY-29" value="" style="endArrow=classic;html=1;rounded=0;fontSize=12;startSize=8;endSize=8;curved=1;entryX=1;entryY=0.5;entryDx=0;entryDy=0;edgeStyle=orthogonalEdgeStyle;" edge="1" parent="WIyWlLk6GJQsqaUBKTNV-1" source="rn9Z2eDnz00FKQH-SZsY-27" target="rn9Z2eDnz00FKQH-SZsY-4">
          <mxGeometry width="50" height="50" relative="1" as="geometry">
            <mxPoint x="550" y="300" as="sourcePoint" />
            <mxPoint x="600" y="250" as="targetPoint" />
            <Array as="points">
              <mxPoint x="800" y="110" />
              <mxPoint x="800" y="375" />
            </Array>
          </mxGeometry>
        </mxCell>
        <mxCell id="rn9Z2eDnz00FKQH-SZsY-30" value="" style="endArrow=classic;html=1;rounded=0;fontSize=12;startSize=8;endSize=8;curved=1;entryX=1;entryY=0;entryDx=0;entryDy=0;edgeStyle=orthogonalEdgeStyle;" edge="1" parent="WIyWlLk6GJQsqaUBKTNV-1" source="rn9Z2eDnz00FKQH-SZsY-27" target="rn9Z2eDnz00FKQH-SZsY-2">
          <mxGeometry width="50" height="50" relative="1" as="geometry">
            <mxPoint x="550" y="300" as="sourcePoint" />
            <mxPoint x="600" y="250" as="targetPoint" />
            <Array as="points">
              <mxPoint x="810" y="110" />
              <mxPoint x="810" y="414" />
            </Array>
          </mxGeometry>
        </mxCell>
        <mxCell id="rn9Z2eDnz00FKQH-SZsY-31" value="" style="endArrow=classic;html=1;rounded=0;fontSize=12;startSize=8;endSize=8;curved=1;entryX=1;entryY=0;entryDx=0;entryDy=0;edgeStyle=orthogonalEdgeStyle;" edge="1" parent="WIyWlLk6GJQsqaUBKTNV-1" source="rn9Z2eDnz00FKQH-SZsY-27" target="rn9Z2eDnz00FKQH-SZsY-5">
          <mxGeometry width="50" height="50" relative="1" as="geometry">
            <mxPoint x="550" y="300" as="sourcePoint" />
            <mxPoint x="600" y="250" as="targetPoint" />
            <Array as="points">
              <mxPoint x="538" y="110" />
            </Array>
          </mxGeometry>
        </mxCell>
      </root>
    </mxGraphModel>
  </diagram>
</mxfile>
